Release info:

General
Format : Matroska
Format version : Version 2
File size : 693 MiB
Duration : 1h 35mn
Overall bit rate mode : Variable
Overall bit rate : 1 014 Kbps

Video
ID : 1
Format : MPEG-4 Visual
Format profile : Advanced Simple@L5
Format settings, BVOP : Yes
Format settings, QPel : No
Format settings, GMC : No warppoints
Format settings, Matrix : Default (H.263)
Codec ID : V_MS/VFW/FOURCC / XVID
Codec ID/Hint : XviD
Duration : 1h 35mn
Bit rate : 873 Kbps
Width : 624 pixels
Height : 352 pixels
Display aspect ratio : 16:9
Frame rate mode : Constant
Frame rate : 25.000 fps
Color space : YUV
Chroma subsampling : 4:2:0
Bit depth : 8 bits
Scan type : Progressive
Compression mode : Lossy
Bits/(Pixel*Frame) : 0.159
Stream size : 596 MiB (86%)
Writing library : XviD 64
Language : English
Default : Yes
Forced : No

Audio
ID : 2
Format : MPEG Audio
Format version : Version 1
Format profile : Layer 3
Mode : Joint stereo
Mode extension : MS Stereo
Muxing mode : Header stripping
Codec ID : A_MPEG/L3
Codec ID/Hint : MP3
Duration : 1h 35mn
Bit rate mode : Variable
Bit rate : 121 Kbps
Nominal bit rate : 128 Kbps
Channel(s) : 2 channels
Sampling rate : 48.0 KHz
Compression mode : Lossy
Stream size : 82.9 MiB (12%)
Language : English
Default : Yes
Forced : No

Source:
credit to original movie ripper Taste (Thanks)

IMDB Info:

Dave and Emma have found the perfect house, until they discover a stash of heroin and end up imprisoned in it by violent thugs.

Director: Eduardo Rodriguez
Writer: Gary Spinelli
Stars: Dolph Lundgren, Briana Evigan and Sean Faris 

Genres: Thriller
 
http://www.imdb.com/title/tt1919090/

Screen Shot:
 
http://www.shotpix.com/images/58451298252910670357.png 
http://www.shotpix.com/images/00539606891136620191.png 
http://www.shotpix.com/images/78133080589930449391.png 
http://www.shotpix.com/images/14833551132484529805.png 
http://www.shotpix.com/images/18259302734600826512.png 
http://www.shotpix.com/images/46069115322490932477.png
